<svg width="1087" height="42" viewBox="0 0 1087 42" fill="none" xmlns="http://www.w3.org/2000/svg">
<path d="M1078.27 41.7071C1078.66 42.0976 1079.3 42.0976 1079.69 41.7071L1086.05 35.3431C1086.44 34.9526 1086.44 34.3195 1086.05 33.9289C1085.66 33.5384 1085.03 33.5384 1084.64 33.9289L1078.98 39.5858L1073.32 33.9289C1072.93 33.5384 1072.3 33.5384 1071.91 33.9289C1071.52 34.3195 1071.52 34.9526 1071.91 35.3431L1078.27 41.7071ZM2.02002 41V21H0.0200195V41H2.02002ZM21.02 2H1058.98V0H21.02V2ZM1077.98 21V41H1079.98V21H1077.98ZM1058.98 2C1069.47 2 1077.98 10.5066 1077.98 21H1079.98C1079.98 9.40202 1070.58 0 1058.98 0V2ZM2.02002 21C2.02002 10.5066 10.5266 2 21.02 2V0C9.42204 0 0.0200195 9.40202 0.0200195 21H2.02002Z" fill="#AAAAAA"/>
</svg>
