<svg width="1087" height="43" viewBox="0 0 1087 43" fill="none" xmlns="http://www.w3.org/2000/svg">
<path d="M8.72717 0.652267C8.33655 0.261745 7.70349 0.261745 7.31287 0.652267L0.948975 7.01623C0.558472 7.40675 0.558472 8.03992 0.948975 8.43044C1.33948 8.82097 1.97266 8.82097 2.36316 8.43044L8.02002 2.77359L13.6769 8.43044C14.0674 8.82097 14.7006 8.82097 15.0911 8.43044C15.4816 8.03992 15.4816 7.40675 15.0911 7.01623L8.72717 0.652267ZM1084.98 1.35938V21.3594H1086.98V1.35938H1084.98ZM1065.98 40.3594H28.02V42.3594H1065.98V40.3594ZM9.02002 21.3594V1.35938H7.02002V21.3594H9.02002ZM28.02 40.3594C17.5265 40.3594 9.02002 31.8528 9.02002 21.3594H7.02002C7.02002 32.9574 16.422 42.3594 28.02 42.3594V40.3594ZM1084.98 21.3594C1084.98 31.8528 1076.47 40.3594 1065.98 40.3594V42.3594C1077.58 42.3594 1086.98 32.9574 1086.98 21.3594H1084.98Z" fill="#AAAAAA"/>
</svg>
