<svg width="145" height="28" viewBox="0 0 145 28" fill="none" xmlns="http://www.w3.org/2000/svg">
<path d="M12.7458 23.0417H9.91497V14.3053C9.91497 13.7038 9.85113 13.2617 9.72349 12.9792C9.60498 12.6875 9.39072 12.5417 9.08073 12.5417C8.51547 12.5417 8.15533 12.8607 8.00035 13.4987C7.85448 14.1276 7.78154 15.0482 7.78154 16.2604V23.0417H4.95066V14.3053C4.95066 13.7038 4.88682 13.2617 4.75918 12.9792C4.63154 12.6875 4.40817 12.5417 4.08906 12.5417C3.53292 12.5417 3.18189 12.8607 3.03601 13.4987C2.89927 14.1276 2.83089 15.0482 2.83089 16.2604V23.0417H0V10.2995H2.85824V12.1452C3.05883 11.4434 3.35513 10.9101 3.74718 10.5456C4.13921 10.181 4.66346 9.99868 5.3199 9.99868C5.86693 9.99868 6.32279 10.1673 6.68748 10.5045C7.06127 10.8327 7.31655 11.2884 7.45332 11.8717C7.77241 11.2337 8.10063 10.7643 8.43798 10.4635C8.78443 10.1536 9.31323 9.99868 10.0244 9.99868C10.8996 9.99868 11.5697 10.3223 12.0347 10.9694C12.5088 11.6074 12.7458 12.5781 12.7458 13.8815V23.0417ZM23.3856 8.64517H19.9393V5.19986H23.3856V8.64517ZM25.984 23.0417H17.423V20.4987H20.2402V12.8561H17.423V10.2995H23.0711V20.4987H25.984V23.0417ZM42.6548 23.0417H39.8239V15.1803C39.8239 14.1868 39.6369 13.4987 39.2632 13.1159C38.8895 12.7331 38.3471 12.5417 37.6358 12.5417C36.5873 12.5417 35.7304 12.9655 35.0649 13.8132C34.4085 14.6608 34.08 15.832 34.08 17.3268V23.0417H31.2491V10.2995H34.08V13.4987C34.3627 12.3958 34.8869 11.5391 35.6528 10.9284C36.4186 10.3086 37.3622 9.99868 38.4836 9.99868C39.7875 9.99868 40.8086 10.4225 41.547 11.2702C42.2857 12.1178 42.6548 13.4212 42.6548 15.1803V23.0417ZM57.9443 23.0417H55.1134V21.8659C54.5664 22.349 54.015 22.7181 53.4586 22.9733C52.9025 23.2285 52.2688 23.3561 51.5579 23.3561C50.7372 23.3561 49.976 23.192 49.274 22.8639C48.5718 22.5358 47.9655 22.0801 47.455 21.4967C46.9537 20.9043 46.557 20.1979 46.2652 19.3776C45.9825 18.5573 45.8413 17.6595 45.8413 16.6842C45.8413 15.7181 45.9825 14.8249 46.2652 14.0045C46.557 13.1751 46.9537 12.4687 47.455 11.8854C47.9655 11.293 48.5718 10.8327 49.274 10.5045C49.976 10.1673 50.7372 9.99868 51.5579 9.99868C52.2688 9.99868 52.9025 10.1217 53.4586 10.3678C54.015 10.6048 54.5664 10.9649 55.1134 11.4479V7.75652H52.6519V5.19986H57.9443V23.0417ZM55.1134 13.6901C54.7762 13.3164 54.3385 13.0339 53.8005 12.8424C53.2719 12.6419 52.7657 12.5417 52.2826 12.5417C51.2159 12.5417 50.345 12.9245 49.6705 13.6901C49.005 14.4557 48.6722 15.4538 48.6722 16.6842C48.6722 17.9147 49.005 18.9082 49.6705 19.6647C50.345 20.4212 51.2159 20.7995 52.2826 20.7995C52.7657 20.7995 53.2719 20.7038 53.8005 20.5124C54.3385 20.3118 54.7762 20.0247 55.1134 19.651V13.6901ZM74.3007 10.2995L72.3859 23.0417H68.8849L67.5449 15.3717L66.1772 23.0417H62.6762L60.7617 10.2995H63.5377L64.6592 18.817L66.0266 10.2995H69.0218L70.4029 18.817L71.5244 10.2995H74.3007ZM89.5219 16.6842C89.5219 17.6777 89.3623 18.5801 89.0431 19.3913C88.7333 20.2025 88.282 20.9043 87.6891 21.4967C87.1056 22.0801 86.4037 22.5358 85.5833 22.8639C84.7626 23.192 83.8465 23.3561 82.8344 23.3561C81.8407 23.3561 80.9333 23.192 80.1129 22.8639C79.2922 22.5358 78.5856 22.0801 77.9931 21.4967C77.4096 20.9043 76.9582 20.2025 76.6394 19.3913C76.3292 18.5801 76.1743 17.6777 76.1743 16.6842C76.1743 15.7181 76.3292 14.8249 76.6394 14.0045C76.9582 13.1751 77.4096 12.4642 77.9931 11.8717C78.5856 11.2702 79.2922 10.8099 80.1129 10.4909C80.9333 10.1628 81.8407 9.99868 82.8344 9.99868C83.8465 9.99868 84.7626 10.1628 85.5833 10.4909C86.4037 10.8099 87.1056 11.2702 87.6891 11.8717C88.282 12.4642 88.7333 13.1751 89.0431 14.0045C89.3623 14.8249 89.5219 15.7181 89.5219 16.6842ZM86.7047 16.6842C86.7047 16.11 86.6134 15.5677 86.4311 15.0573C86.2578 14.5378 86.0025 14.0957 85.6652 13.7311C85.328 13.3665 84.9175 13.0794 84.4343 12.8698C83.9603 12.651 83.4269 12.5417 82.8344 12.5417C82.2325 12.5417 81.6948 12.651 81.2207 12.8698C80.7466 13.0794 80.3455 13.3665 80.0172 13.7311C79.689 14.0957 79.4337 14.5378 79.2514 15.0573C79.0781 15.5677 78.9914 16.11 78.9914 16.6842C78.9914 17.2858 79.0781 17.8327 79.2514 18.3249C79.4337 18.817 79.689 19.25 80.0172 19.6237C80.3455 19.9974 80.7466 20.2891 81.2207 20.4987C81.6948 20.6992 82.2325 20.7995 82.8344 20.7995C83.4269 20.7995 83.9603 20.6992 84.4343 20.4987C84.9175 20.2891 85.328 19.9974 85.6652 19.6237C86.0025 19.25 86.2578 18.817 86.4311 18.3249C86.6134 17.8327 86.7047 17.2858 86.7047 16.6842ZM104.169 13.321C103.831 13.1569 103.485 13.0339 103.129 12.9518C102.783 12.8607 102.382 12.8151 101.926 12.8151C101.297 12.8151 100.704 12.9108 100.148 13.1022C99.601 13.2845 99.1269 13.5625 98.7257 13.9362C98.3246 14.3099 98.0101 14.7793 97.7819 15.3444C97.5631 15.9004 97.4537 16.5612 97.4537 17.3268V20.4987H100.312V23.0417H91.7374V20.4987H94.6229V12.8561H91.7374V10.2995H97.4537V13.4987C97.9188 12.2226 98.6026 11.3203 99.505 10.7917C100.417 10.263 101.497 9.99868 102.746 9.99868C103.138 9.99868 103.549 10.0397 103.977 10.1217C104.406 10.2038 104.825 10.3496 105.235 10.5592L104.169 13.321ZM119.745 23.0417H116.08L111.813 17.8874L110.528 19.1999V23.0417H107.697V5.19986H110.528V15.6999L115.629 10.2995H119.513L113.632 16.151L119.745 23.0417ZM134.72 19.2272C134.72 20.0566 134.533 20.7311 134.16 21.2507C133.786 21.7702 133.303 22.1894 132.71 22.5085C132.127 22.8275 131.47 23.0462 130.741 23.1647C130.02 23.2923 129.314 23.3561 128.621 23.3561C127.463 23.3561 126.31 23.1875 125.161 22.8503C124.012 22.513 123.018 22.071 122.18 21.5241L123.356 19.1999C124.359 19.7832 125.275 20.1979 126.104 20.444C126.943 20.681 127.782 20.7995 128.621 20.7995C129.761 20.7995 130.59 20.681 131.11 20.444C131.63 20.1979 131.889 19.8607 131.889 19.4323C131.889 19.2226 131.816 19.0495 131.671 18.9128C131.525 18.776 131.283 18.653 130.946 18.5436C130.609 18.4251 130.162 18.3112 129.605 18.2018C129.058 18.0833 128.375 17.9603 127.554 17.8327C126.898 17.7233 126.273 17.5911 125.681 17.4362C125.097 17.2721 124.582 17.0443 124.135 16.7526C123.688 16.4609 123.328 16.0918 123.055 15.6452C122.79 15.1986 122.658 14.638 122.658 13.9635C122.658 13.2799 122.832 12.6875 123.178 12.1862C123.534 11.6758 123.994 11.2565 124.559 10.9284C125.134 10.6003 125.776 10.3633 126.488 10.2174C127.199 10.0716 127.91 9.99868 128.621 9.99868C129.624 9.99868 130.595 10.1309 131.534 10.3952C132.482 10.6504 133.312 11.0195 134.023 11.5026L132.901 13.6901C132.19 13.2435 131.497 12.9427 130.823 12.7878C130.157 12.6237 129.423 12.5417 128.621 12.5417C128.284 12.5417 127.933 12.5599 127.568 12.5964C127.203 12.6328 126.866 12.7057 126.556 12.8151C126.246 12.9153 125.986 13.0566 125.776 13.2389C125.576 13.4121 125.475 13.6263 125.475 13.8815C125.475 14.2187 125.772 14.4967 126.364 14.7155C126.966 14.9251 127.987 15.1348 129.428 15.3444C130.212 15.4538 130.928 15.5951 131.575 15.7682C132.222 15.9323 132.778 16.1601 133.243 16.4518C133.708 16.7344 134.068 17.1035 134.324 17.5592C134.588 18.0059 134.72 18.5618 134.72 19.2272Z" fill="white"/>
<path fill-rule="evenodd" clip-rule="evenodd" d="M136.247 9.625C136.247 12.0412 138.207 14 140.624 14C143.041 14 145 12.0412 145 9.625C145 7.20878 143.041 5.25 140.624 5.25C138.207 5.25 136.247 7.20878 136.247 9.625Z" fill="white"/>
</svg>
