<svg width="202" height="251" viewBox="0 0 202 251" fill="none" xmlns="http://www.w3.org/2000/svg">
<path d="M201.143 122.1L153.723 4.86809C152.56 1.88763 149.651 0 146.547 0H7.78014C2.25272 0 -1.52919 5.76223 0.604196 11.0277L46.763 125.179L0.604196 239.331C-1.52919 244.597 2.25272 250.359 7.78014 250.359H146.547C149.651 250.359 152.56 248.471 153.723 245.491L201.143 128.259C201.919 126.272 201.919 124.087 201.143 122.1Z" fill="#262626"/>
<path d="M201.143 122.098L155.372 8.84075C154.208 5.86028 151.299 3.97266 148.196 3.97266H9.42867C3.90125 3.97266 0.119334 9.73489 2.25272 15.0004L46.86 125.178L0.604196 239.33C-1.52919 244.595 2.25272 250.358 7.78014 250.358H146.547C149.651 250.358 152.56 248.47 153.723 245.49L201.143 128.258C201.919 126.271 201.919 124.085 201.143 122.098Z" fill="#171717"/>
</svg>
